<svg xmlns="http://www.w3.org/2000/svg" width="512" height="512" viewBox="0 0 512 512" fill="none">
  <rect width="512" height="512" rx="112" fill="#E5EFE4"/>
  <path d="M256 416C167.634 416 96 344.366 96 256C96 167.634 167.634 96 256 96C344.366 96 416 167.634 416 256C416 344.366 344.366 416 256 416Z" fill="#7D9A7A" opacity="0.1"/>
  <path d="M298.667 128C298.667 128 277.333 133.333 256 160C234.667 186.667 234.667 224 234.667 224C234.667 224 181.333 224 160 266.667C146.12 294.425 150.187 325.26 157.067 348.667C153.333 355.333 144 365.333 133.333 373.333L144 384C154.667 376 160 365.333 162.667 357.333C185.753 365.419 216.732 370.4 245.333 354.667C288 333.333 288 280 288 280C288 280 325.333 280 352 256C378.667 234.667 384 213.333 384 213.333C384 213.333 362.667 202.667 334.667 202.667C306.667 202.667 288 213.333 288 213.333C288 213.333 288 181.333 266.667 154.667C245.333 128 298.667 128 298.667 128Z" fill="#7D9A7A"/>
  <path d="M256 256C256 256 288 288 256 320" stroke="#E5EFE4" stroke-width="16" stroke-linecap="round" stroke-linejoin="round"/>
</svg>
